<?xml version="1.0" standalone="no"?>
<!DOCTYPE svg PUBLIC "-//W3C//DTD SVG 20010904//EN"
 "http://www.w3.org/TR/2001/REC-SVG-20010904/DTD/svg10.dtd">
<svg version="1.0" xmlns="http://www.w3.org/2000/svg"
 width="800.000000pt" height="1097.000000pt" viewBox="0 0 800.000000 1097.000000"
 preserveAspectRatio="xMidYMid meet">
<metadata>
Created by potrace 1.15, written by Peter Selinger 2001-2017
</metadata>
<g transform="translate(0.000000,1097.000000) scale(0.100000,-0.100000)"
fill="#000000" stroke="none">
<path d="M3785 10964 c-16 -2 -73 -9 -125 -15 -269 -30 -531 -109 -735 -222
-49 -27 -91 -50 -93 -52 -1 -1 22 -60 53 -130 160 -371 248 -804 257 -1265 3
-134 1 -160 -14 -182 -12 -18 -62 -48 -150 -91 -451 -217 -791 -546 -1005
-972 -68 -135 -93 -168 -152 -203 -44 -26 -52 -27 -171 -26 -219 3 -553 49
-790 109 -122 31 -271 82 -432 147 -150 60 -130 69 -207 -87 -261 -528 -293
-1281 -79 -1875 35 -97 144 -320 156 -320 5 0 46 16 93 37 88 38 125 42 226
28 51 -7 51 -7 68 25 l17 33 19 -29 c29 -44 42 -124 30 -186 -11 -60 -45 -144
-68 -170 -13 -14 -13 -20 -3 -33 22 -26 71 -18 115 20 48 42 57 43 54 8 -1
-16 -1 -45 -1 -67 l2 -38 36 7 c53 9 80 31 105 81 29 61 23 136 -15 194 -41
62 -56 114 -56 194 0 105 3 111 63 123 29 6 53 10 54 9 1 -1 -8 -29 -21 -61
-28 -71 -40 -145 -23 -145 7 0 30 9 52 19 46 21 84 62 127 138 16 29 34 56 39
59 6 3 7 -61 3 -168 l-7 -173 48 -140 c39 -115 46 -148 42 -187 -7 -53 -35
-114 -66 -142 -12 -11 -21 -22 -21 -27 0 -4 23 -10 51 -14 l51 -7 72 71 72 72
58 -88 c92 -139 197 -285 230 -321 75 -81 175 -84 176 -5 0 12 -18 56 -40 98
l-39 77 24 37 c14 20 27 51 31 68 5 27 1 37 -33 74 l-40 42 -45 -12 c-53 -15
-72 -8 -112 40 -77 91 -141 236 -202 458 -46 169 -46 236 2 299 1 2 18 -1 37
-7 22 -8 41 -23 52 -45 17 -31 17 -44 6 -174 -13 -146 -8 -195 24 -222 22 -18
95 20 134 69 l34 42 62 -6 c76 -8 98 1 125 55 11 22 24 40 29 40 5 0 22 -21
37 -47 95 -164 233 -341 378 -485 174 -173 339 -289 573 -404 96 -48 157 -84
167 -100 15 -22 16 -95 13 -772 -2 -411 -7 -760 -12 -777 -7 -25 6 -17 94 65
105 97 157 137 167 127 8 -7 -240 -257 -255 -257 -6 0 -11 8 -11 18 0 14 -4
12 -20 -8 -24 -31 -25 -41 -4 -33 13 5 15 2 9 -18 -11 -36 -25 -47 -25 -18 l0
24 -20 -25 c-25 -32 -42 -113 -34 -159 6 -36 42 -104 90 -170 l24 -34 0 -611
0 -611 -30 -50 c-65 -113 -120 -226 -120 -250 0 -26 41 -62 59 -51 5 4 17 29
26 56 20 62 49 71 40 13 -26 -152 -72 -358 -110 -487 -39 -139 -121 -361 -160
-437 -9 -16 -13 -35 -9 -41 10 -16 237 -121 339 -156 531 -184 1181 -176 1698
19 114 43 267 116 290 138 4 5 -11 50 -33 102 -97 219 -174 475 -219 725 -51
285 -54 366 -53 1606 1 879 4 1163 13 1180 12 23 63 92 85 115 9 10 9 24 -2
59 -8 26 -14 69 -14 95 0 43 -3 50 -39 78 -27 22 -42 44 -51 76 -15 53 -7 142
16 187 18 35 92 118 105 118 5 0 9 -34 9 -75 0 -136 32 -233 93 -279 40 -31
73 -35 62 -8 -3 9 -9 29 -12 44 -5 24 -8 26 -26 17 -17 -10 -23 -7 -38 12 -20
26 -44 93 -54 152 -6 38 2 46 23 25 9 -9 12 0 12 41 0 28 5 73 11 99 15 59
121 296 144 318 9 10 39 19 66 22 27 2 49 10 49 16 0 6 -9 135 -20 286 -11
150 -18 275 -16 277 9 9 56 -194 65 -277 10 -102 0 -268 -20 -329 -7 -20 -28
-50 -47 -66 -29 -26 -35 -39 -39 -81 -3 -30 -1 -54 5 -58 13 -8 65 57 86 108
9 21 21 68 27 104 15 98 32 124 132 205 249 203 468 485 607 782 35 75 54 103
74 113 74 33 546 -5 846 -69 186 -39 424 -116 603 -195 43 -19 84 -34 91 -34
14 0 107 191 150 305 89 243 134 485 143 780 11 378 -45 720 -167 1005 -49
115 -117 230 -133 225 -666 -223 -940 -285 -1254 -285 l-113 0 0 30 c0 39 28
57 121 75 682 130 853 185 617 197 -57 3 -229 4 -383 3 -154 -1 -283 -1 -286
1 -8 5 47 170 65 196 26 36 83 67 193 104 142 48 679 247 740 275 180 82 233
110 233 124 0 11 -12 15 -47 15 -48 0 -617 -123 -923 -199 -197 -49 -269 -53
-347 -16 -61 28 -62 11 14 182 54 120 1 98 421 174 240 44 292 57 292 70 0 25
-58 29 -375 29 -223 0 -292 3 -333 15 -51 15 -126 65 -146 97 -8 13 4 64 48
215 32 109 66 223 76 253 18 58 14 68 -19 51 -21 -12 -125 -182 -207 -340 -77
-147 -154 -216 -266 -236 -30 -6 -39 -4 -44 9 -3 8 15 115 41 237 38 179 44
223 34 230 -8 4 -17 5 -20 1 -4 -4 -51 -108 -104 -232 -54 -124 -102 -229
-106 -234 -5 -6 -9 -1 -9 12 0 32 -25 76 -53 95 -14 9 -64 23 -112 31 -48 9
-89 17 -90 18 0 2 4 86 11 188 16 233 16 250 4 250 -18 0 -39 -46 -99 -220
-34 -96 -69 -182 -79 -192 -18 -19 -178 -92 -226 -104 -22 -5 -26 -2 -37 38
-27 98 -33 89 169 256 172 144 182 154 182 187 0 19 -2 35 -5 35 -6 0 -191
-114 -304 -187 -65 -43 -86 -52 -93 -41 -19 28 -1 96 50 184 62 108 87 195 78
277 -3 32 -10 66 -16 77 -29 54 -12 121 125 490 26 69 49 132 52 141 5 18 -63
57 -200 113 -310 128 -631 187 -987 184 -91 0 -178 -3 -195 -4z m855 -1281
c-49 -22 -384 -132 -389 -128 -2 2 6 17 18 34 42 58 200 108 351 110 l55 0
-35 -16z m-510 -2 c0 -5 -17 -11 -37 -15 -36 -5 -84 -34 -213 -126 -62 -44
-74 -36 -41 28 24 46 78 90 135 108 47 14 156 18 156 5z m435 -120 c31 -14
183 -109 204 -127 6 -5 -40 -54 -51 -54 -4 0 -36 25 -69 56 -71 65 -127 93
-186 94 -50 0 -136 -30 -183 -65 -18 -14 -36 -22 -39 -20 -9 10 82 94 123 114
54 26 147 27 201 2z m-898 -191 c35 -81 123 -325 163 -452 6 -21 10 -59 9 -85
-3 -38 0 -49 13 -51 19 -4 48 34 48 63 0 39 13 47 68 39 29 -3 52 -11 52 -16
0 -6 -30 -40 -67 -77 -81 -80 -141 -111 -217 -111 -56 0 -186 34 -186 49 0 5
16 23 35 40 40 35 91 41 135 16 55 -31 59 -63 -74 505 -19 80 -37 161 -41 180
-6 32 -6 33 7 15 8 -11 33 -63 55 -115z m1627 -94 l-7 -93 72 15 c64 14 78 14
114 1 37 -12 42 -18 45 -48 4 -36 -24 -123 -65 -204 -31 -63 -86 -122 -142
-155 -25 -14 -84 -54 -130 -89 -46 -35 -88 -63 -92 -63 -12 0 -21 39 -15 63 3
12 50 55 107 97 141 105 181 154 195 238 6 38 4 41 -33 66 -46 31 -121 47
-168 36 -19 -4 -55 -19 -81 -34 -51 -28 -84 -33 -84 -13 0 7 13 34 29 59 35
55 79 74 152 64 39 -5 49 -4 49 8 0 28 41 146 51 146 6 0 7 -35 3 -94z m-1743
24 c-6 -17 -30 -62 -54 -98 -66 -100 -65 -102 5 -34 35 34 67 60 70 57 9 -9
-275 -464 -289 -465 -23 0 -14 28 42 140 30 61 53 110 51 110 -3 0 -35 -44
-72 -97 -37 -54 -76 -109 -87 -123 l-20 -25 6 53 c11 98 122 300 227 416 50
53 120 108 129 100 2 -1 -2 -17 -8 -34z m929 -203 c0 -7 -328 -305 -455 -414
-153 -130 -193 -169 -225 -213 -28 -40 -8 -49 35 -15 20 15 41 23 48 19 23
-13 272 -177 281 -185 11 -10 -78 -54 -126 -63 -60 -11 -108 8 -320 129 -223
127 -272 144 -367 127 -31 -5 -162 -37 -291 -71 -129 -33 -238 -61 -241 -61
-4 0 -19 18 -33 41 -15 22 -31 38 -34 34 -4 -4 -7 -55 -8 -113 -1 -59 -8 -147
-17 -196 -10 -49 -17 -93 -17 -97 0 -5 -4 -9 -10 -9 -6 0 -10 63 -10 170 l0
170 -42 -30 c-58 -43 -83 -39 -139 19 -68 71 -73 83 -47 116 20 26 24 27 77
19 31 -4 85 -8 121 -8 56 0 75 5 135 37 61 32 204 87 226 87 4 0 14 -18 23
-41 9 -23 22 -39 29 -36 12 4 13 56 1 165 -8 77 15 67 49 -21 15 -39 36 -90
47 -112 l18 -40 1 71 1 72 68 13 c37 7 110 14 162 14 94 0 246 -21 255 -35 3
-5 -2 -24 -10 -44 -21 -51 -19 -81 11 -113 25 -28 26 -28 20 -4 -12 55 14 82
215 224 107 75 275 195 374 266 160 116 195 139 195 128z m1650 -21 c44 -12
46 -15 77 -92 48 -118 51 -153 18 -210 -15 -25 -59 -80 -99 -121 -45 -48 -63
-73 -50 -69 68 21 149 1 213 -54 27 -24 29 -21 -27 -49 -42 -21 -48 -41 -13
-41 10 0 70 15 132 34 63 19 238 69 389 111 270 76 429 121 461 131 11 3 18
-2 21 -14 5 -17 -11 -25 -116 -61 -585 -198 -833 -282 -846 -288 -9 -3 4 -12
37 -22 l52 -16 -16 -35 c-8 -19 -30 -70 -47 -112 l-32 -77 -96 92 -97 92 29
55 c16 30 29 61 30 68 0 9 -32 12 -126 12 l-126 0 76 82 c41 45 73 84 71 86
-8 8 -90 -46 -135 -90 -25 -23 -82 -98 -128 -165 -140 -207 -236 -293 -329
-293 -36 0 -44 -14 -15 -24 9 -4 62 -32 117 -63 237 -134 319 -183 305 -183
-7 0 -48 10 -89 21 -168 47 -414 160 -491 226 l-38 33 -6 -26 c-8 -29 5 -48
47 -74 l28 -18 -36 -29 c-126 -105 -349 -142 -522 -89 -43 13 -122 35 -176 47
-107 25 -199 70 -231 112 -25 33 -14 48 66 88 86 44 170 37 333 -26 63 -24 79
-27 160 -22 98 6 203 37 271 80 43 27 147 127 140 135 -3 2 -35 -18 -71 -44
-88 -65 -136 -94 -157 -94 -19 0 -146 65 -168 86 -25 24 0 32 115 39 75 5 124
13 154 26 39 17 52 18 97 9 49 -10 58 -9 124 19 39 17 86 41 103 53 74 50 148
148 172 228 12 40 66 119 148 217 93 110 105 137 80 172 -28 36 -38 31 -41
-21 -2 -25 -9 -51 -16 -57 -13 -11 -164 -37 -170 -30 -2 2 0 35 5 73 9 76 41
129 87 148 35 13 216 45 267 47 22 0 60 -5 85 -13z m-459 -127 c-36 -221 -69
-366 -95 -418 -14 -27 -26 -53 -26 -56 0 -3 16 1 35 9 41 17 44 8 15 -40 -24
-37 -66 -56 -180 -79 -114 -23 -170 -44 -225 -83 -47 -33 -57 -36 -155 -43
-127 -10 -258 -36 -443 -89 -83 -24 -160 -40 -192 -40 l-53 0 -231 -290 c-128
-159 -236 -292 -242 -296 -21 -13 -16 2 18 61 20 33 64 110 98 170 34 61 97
170 139 244 42 73 76 135 76 137 0 2 -8 4 -19 4 -11 0 -23 -12 -31 -30 -30
-73 -103 -102 -300 -120 -69 -6 -142 -13 -162 -16 l-38 -6 0 46 c0 25 -3 46
-6 46 -3 0 -33 -16 -67 -36 -34 -20 -93 -48 -132 -64 -92 -36 -265 -93 -270
-89 -1 2 71 56 162 119 90 63 167 119 170 124 3 5 -5 7 -18 4 -13 -3 -38 -9
-55 -13 -26 -6 -37 -1 -78 34 -80 70 -75 69 -338 68 -131 0 -240 2 -243 5 -3
3 0 17 6 32 27 59 277 148 419 149 144 0 247 -39 345 -133 86 -82 132 -103
235 -108 104 -5 156 7 634 149 54 16 101 29 105 29 17 -1 34 -21 46 -56 l13
-39 12 30 c9 24 8 36 -4 63 -15 31 -15 35 4 73 14 26 37 50 67 67 25 15 88 55
140 90 52 34 103 62 113 62 11 0 28 -10 40 -22 35 -38 34 -11 -3 79 -20 48
-34 89 -32 91 7 7 36 -19 67 -62 52 -73 28 -140 -67 -189 -43 -22 -95 -76 -95
-99 0 -33 29 -77 56 -84 29 -7 104 12 104 26 0 6 -15 10 -32 10 -47 0 -78 10
-78 25 0 23 179 93 242 95 3 0 6 -21 5 -47 l-2 -48 37 -3 c42 -4 68 23 68 70
0 26 -3 28 -42 28 l-43 1 45 23 c39 20 124 47 221 70 25 5 27 3 33 -39 4 -25
10 -45 14 -45 7 0 132 343 127 348 -2 2 -28 -3 -58 -12 -90 -26 -90 -26 -56
56 16 40 37 80 46 90 21 24 54 23 87 -3 l27 -21 27 60 c14 34 28 60 30 58 2
-2 -6 -59 -17 -127z m-1022 -259 c0 -91 -17 -232 -30 -245 -3 -2 -25 -13 -49
-24 -50 -22 -35 -27 -179 56 -51 30 -94 53 -96 51 -1 -2 -14 -21 -28 -43 l-27
-40 0 62 0 62 -42 11 c-49 13 -141 41 -146 45 -9 7 50 84 68 90 14 4 40 -4 78
-23 31 -16 102 -42 157 -56 106 -28 125 -41 126 -90 0 -17 4 -40 9 -51 7 -18
9 -16 23 15 8 19 39 109 68 198 51 155 54 162 61 125 4 -21 7 -85 7 -143z
m-2112 -442 c17 -20 45 -44 62 -52 47 -25 63 -56 59 -117 -2 -43 -7 -55 -21
-57 -28 -5 -55 25 -62 69 l-7 39 -77 -123 c-43 -67 -102 -160 -131 -207 -61
-97 -77 -117 -86 -107 -4 4 39 103 95 220 55 117 101 218 101 223 0 5 -37 33
-81 62 -44 29 -77 57 -74 62 3 6 24 10 46 10 l39 0 0 59 0 59 53 -52 c28 -29
66 -68 84 -88z m3529 -29 c54 -14 118 -73 146 -136 21 -47 46 -239 35 -267
-18 -46 -93 4 -163 109 -72 110 -132 137 -297 136 -66 -1 -123 -3 -128 -7 -5
-3 -14 -2 -19 1 -15 9 45 81 89 109 52 33 99 46 193 55 46 5 87 9 91 10 5 0
28 -4 53 -10z m-2926 -59 c12 -22 -8 -33 -287 -160 -98 -44 -106 -40 -97 57 4
43 12 81 18 85 6 4 34 8 61 9 42 0 285 24 292 28 1 0 7 -8 13 -19z m-870 -112
c0 -7 -19 -31 -42 -53 -22 -22 -69 -83 -104 -136 -220 -333 -321 -685 -268
-934 l7 -30 -21 19 c-44 39 -51 118 -27 298 30 217 126 447 257 616 37 48 93
120 123 160 54 69 75 86 75 60z m4352 1 c57 -6 106 -14 111 -18 4 -4 -86 -22
-199 -40 -206 -33 -207 -33 -226 -13 -19 19 -19 21 -3 45 14 21 26 27 68 30
108 7 149 7 249 -4z m1097 -146 c75 -151 126 -311 160 -503 89 -497 29 -1051
-151 -1403 -38 -75 -54 -96 -67 -93 -30 10 -355 104 -411 119 -30 9 -111 31
-180 50 -147 42 -256 63 -400 77 -134 14 -499 25 -532 17 -41 -11 -84 -63
-118 -145 -92 -223 -261 -462 -479 -680 -96 -96 -105 -103 -118 -86 -26 36
-16 70 33 110 54 44 80 92 90 162 5 42 2 59 -19 106 -14 31 -32 56 -40 56 -9
0 -23 -30 -40 -82 l-25 -83 -1 53 c-1 29 -6 62 -12 74 -10 18 -17 19 -63 14
-45 -6 -55 -4 -71 14 -25 28 -32 25 -27 -10 8 -52 -12 -33 -47 48 -19 42 -50
112 -69 154 -19 42 -32 82 -30 89 2 7 25 -21 51 -61 26 -41 47 -71 47 -69 0 3
-11 39 -25 79 -14 40 -25 75 -25 76 0 1 21 14 46 29 l46 27 -24 25 c-12 14
-43 36 -68 51 -97 55 -106 81 -76 214 8 35 20 104 26 153 11 87 34 150 80 220
10 17 25 60 32 98 7 37 16 67 20 67 4 0 36 -28 72 -63 47 -44 66 -70 66 -87 0
-14 -23 -90 -50 -169 -57 -164 -61 -198 -26 -238 l25 -28 15 37 c9 20 28 69
44 108 l29 73 6 -54 c4 -30 7 -83 7 -119 0 -94 24 -191 67 -276 38 -74 44 -80
103 -86 23 -3 25 1 28 40 2 33 -6 62 -37 130 -52 112 -65 175 -58 282 5 74 33
189 51 207 11 11 121 -70 191 -141 39 -39 103 -120 144 -179 40 -59 76 -107
80 -107 47 1 41 106 -13 214 -47 96 -125 180 -224 244 -122 79 -133 98 -125
220 l6 82 42 -35 c52 -42 82 -55 118 -48 37 7 35 30 -9 150 -33 91 -64 188
-64 206 0 4 6 7 13 6 12 0 57 -58 150 -194 123 -178 224 -273 366 -345 110
-55 281 -97 281 -69 0 24 -44 70 -98 103 -55 33 -232 118 -232 111 0 -2 48
-38 106 -82 58 -43 99 -79 91 -81 -8 -2 -43 9 -78 23 -248 105 -480 408 -478
625 l0 45 23 -55 c49 -118 116 -251 145 -292 35 -49 138 -135 155 -129 6 2 52
4 101 5 85 1 95 3 148 36 31 19 57 37 57 41 0 4 -69 30 -152 60 -277 96 -338
135 -396 254 -39 80 -56 155 -49 224 10 106 39 135 114 111 21 -7 146 -59 279
-116 246 -104 284 -117 291 -98 7 20 -32 45 -417 267 -85 49 -165 98 -177 110
-26 23 -31 76 -12 124 l10 28 18 -24 c10 -14 33 -52 50 -85 20 -38 45 -70 68
-86 36 -25 40 -25 227 -24 204 1 345 12 539 45 227 38 511 117 717 198 41 16
78 30 82 30 4 1 30 -43 57 -96z m-3786 -7 c8 -8 24 -12 40 -9 15 3 27 3 27 0
0 -4 -69 -111 -153 -239 -84 -128 -188 -288 -232 -355 -71 -112 -95 -140 -95
-113 0 5 -19 20 -42 34 -32 18 -64 26 -123 31 -70 5 -95 2 -200 -26 -90 -24
-138 -32 -192 -30 -56 1 -82 -3 -113 -19 -45 -23 -48 -20 -19 21 32 45 14 52
-52 19 -32 -17 -59 -29 -59 -27 0 2 14 31 30 65 35 72 36 80 13 78 -25 -2 -19
39 12 80 24 32 24 33 5 36 -17 2 -9 15 52 79 40 41 88 94 105 116 24 30 49 48
88 62 87 33 161 23 85 -11 -36 -16 -39 -28 -5 -28 13 0 29 -6 35 -12 34 -40
96 -130 151 -223 74 -122 92 -145 119 -145 27 0 25 10 -16 93 -46 91 -114 270
-114 300 0 13 13 35 28 50 35 34 140 88 148 76 11 -19 40 -7 81 33 46 45 69
46 34 2 -12 -15 -20 -29 -17 -31 2 -2 33 15 70 38 73 46 95 45 51 -1 -36 -37
-29 -45 21 -24 27 11 43 13 55 6 12 -8 27 -2 66 27 85 65 94 68 116 47z
m-3578 -41 c18 -36 19 -38 2 -68 -13 -22 -15 -32 -6 -38 6 -3 9 -11 5 -17 -3
-6 -3 -13 2 -16 5 -3 16 8 26 25 9 16 12 29 7 29 -6 0 -11 9 -11 20 0 25 2 25
50 0 43 -22 48 -36 25 -80 -13 -25 -18 -27 -47 -21 -18 4 -47 15 -65 24 -18
10 -39 17 -47 17 -19 0 -40 36 -32 56 3 8 -1 14 -9 14 -8 0 -15 2 -15 4 0 9
84 95 89 91 3 -2 15 -20 26 -40z m5048 -41 c18 -9 40 -23 49 -31 13 -12 21
-12 39 -3 29 16 84 8 145 -21 l49 -22 -35 -7 -35 -6 37 -19 38 -19 -6 -70 c-8
-104 -14 -136 -25 -136 -12 0 -90 65 -184 154 -39 37 -68 74 -75 97 -9 26 -20
39 -37 44 -17 4 -23 11 -19 21 3 9 6 20 6 25 0 13 17 11 53 -7z m-885 -49 c17
-19 18 -25 7 -25 -27 0 -16 -15 19 -26 31 -9 35 -8 44 10 5 12 22 28 37 36 24
13 28 13 36 -3 6 -9 20 -17 32 -17 20 -1 21 -2 5 -14 -24 -18 -12 -27 20 -15
31 12 52 5 52 -17 0 -11 5 -14 18 -9 32 14 64 18 71 9 14 -20 138 -53 193 -51
66 2 83 -9 70 -43 -6 -17 -2 -45 15 -97 24 -78 29 -113 14 -113 -15 0 -51 -84
-51 -118 0 -40 9 -40 45 -2 34 35 52 110 62 253 l6 98 31 -7 c17 -3 45 -14 61
-24 163 -94 276 -165 291 -181 27 -29 9 -65 -60 -120 -32 -26 -68 -63 -81 -81
-21 -31 -32 -36 -106 -52 -189 -41 -259 -74 -259 -125 0 -32 -17 -58 -85 -131
-64 -69 -117 -156 -145 -240 -45 -132 -43 -311 10 -889 16 -184 30 -376 30
-427 0 -115 -23 -183 -102 -305 -48 -74 -63 -90 -109 -113 -90 -44 -238 -29
-398 42 -146 65 -202 75 -372 67 -134 -7 -149 -6 -185 13 -47 24 -85 64 -112
116 -21 43 -22 41 -37 -31 -8 -39 3 -103 18 -103 6 0 25 -16 43 -35 22 -24 41
-35 59 -35 16 0 51 -15 79 -32 28 -19 60 -31 73 -30 36 5 27 -5 -27 -33 -58
-29 -60 -30 -60 -9 0 13 -6 11 -28 -8 -16 -13 -49 -31 -73 -40 -204 -75 -250
-93 -293 -116 -27 -15 -71 -47 -98 -70 l-48 -44 0 100 c0 158 -13 178 -170
257 -118 60 -310 172 -353 206 l-29 22 7 106 c7 103 6 107 -19 144 -26 38 -35
98 -18 125 10 16 43 5 99 -33 72 -47 183 -40 212 13 9 18 2 21 -117 48 l-127
29 -87 78 c-49 43 -88 80 -88 82 0 1 7 19 15 39 15 37 15 37 -5 26 -12 -6 -33
-10 -48 -8 -24 3 -27 7 -28 43 0 33 -4 41 -21 43 -30 4 -37 16 -69 105 -23 66
-25 80 -13 89 10 7 8 8 -8 3 -18 -5 -24 -1 -29 19 -3 13 -1 34 6 45 8 17 8 21
-4 21 -25 0 -46 30 -46 64 0 18 -9 75 -20 127 -13 61 -20 133 -20 205 l0 112
68 7 c125 12 138 23 76 63 l-36 24 23 24 c27 29 27 29 -38 4 l-53 -20 0 35 c0
33 -2 35 -21 25 -11 -7 -23 -10 -25 -7 -3 2 1 39 8 82 18 105 38 111 39 13 1
-70 1 -72 14 -43 8 17 14 64 15 106 0 42 3 78 6 81 3 4 35 -16 71 -43 50 -37
71 -48 87 -42 43 14 83 1 56 -18 -12 -9 -12 -10 3 -5 24 8 47 -3 47 -23 0 -10
-28 -33 -72 -59 -59 -34 -68 -42 -47 -42 15 0 37 -8 49 -18 19 -15 21 -22 11
-40 -6 -11 -11 -23 -11 -26 0 -12 30 -5 65 15 24 14 46 20 68 16 24 -3 38 1
55 17 18 16 38 21 83 23 74 2 91 -16 82 -85 -5 -37 -3 -47 13 -59 12 -9 15
-16 8 -21 -6 -4 -23 -17 -39 -29 l-28 -23 55 -72 c33 -44 72 -82 97 -96 44
-25 42 -26 57 33 6 29 8 27 22 -27 9 -32 19 -58 23 -58 3 0 9 18 13 40 7 48
21 52 30 9 7 -34 22 -31 38 9 10 27 10 27 26 -18 18 -56 18 -56 38 -40 13 12
17 11 25 -1 5 -8 9 -20 9 -27 0 -7 5 -10 10 -7 6 3 10 30 10 58 l0 52 46 -82
c25 -46 49 -83 53 -83 16 0 18 12 10 57 -5 25 -7 48 -5 50 2 2 28 -5 57 -17
30 -11 55 -20 57 -20 1 0 0 19 -4 43 l-6 42 37 -40 36 -40 -6 38 c-3 20 -3 37
0 37 3 0 23 -9 45 -20 53 -27 60 -26 60 15 0 39 5 42 32 19 15 -14 20 -15 34
-3 23 19 74 128 74 159 0 26 -18 100 -25 100 -2 0 -30 -26 -62 -58 -32 -33
-84 -71 -118 -88 -56 -27 -67 -29 -170 -28 -213 2 -288 11 -307 35 -13 16 -24
20 -43 15 -24 -6 -31 4 -26 37 0 4 -15 7 -34 7 -41 0 -44 14 -13 47 19 20 20
26 8 33 -18 11 -20 9 70 52 41 20 89 48 105 62 30 25 30 25 -90 -10 -65 -20
-122 -37 -126 -40 -4 -2 -5 14 -2 36 6 41 4 44 -62 65 -52 17 32 25 307 31
203 5 320 3 383 -5 88 -12 293 -47 327 -57 31 -9 48 -34 48 -70 0 -19 2 -34 4
-34 2 0 23 7 46 15 81 28 169 10 192 -39 14 -33 23 -32 67 1 48 36 70 62 86
100 7 17 23 41 34 52 16 16 21 34 21 71 0 65 -24 93 -68 80 -17 -4 -34 -5 -38
0 -16 14 -133 50 -163 50 -36 0 -91 -19 -91 -32 0 -5 16 -38 35 -72 19 -35 35
-68 35 -74 0 -25 -20 -10 -48 37 -17 26 -44 58 -62 71 -24 17 -30 28 -26 44 5
19 -1 23 -52 35 -127 29 -294 70 -297 73 -2 2 105 116 238 253 162 167 248
249 260 248 10 -2 34 4 54 12 19 8 37 15 40 15 2 0 -13 -21 -34 -47 -36 -44
-37 -46 -13 -40 75 21 70 22 63 -17 -4 -29 0 -42 26 -74 17 -22 31 -47 31 -55
0 -34 73 -159 104 -178 48 -29 51 -23 12 30 -20 27 -36 51 -36 55 0 16 33 3
53 -21 68 -82 94 -104 152 -134 l64 -34 58 58 c41 41 52 57 39 57 -15 0 -16 3
-6 15 17 20 30 19 30 -2 0 -15 3 -14 23 5 45 45 12 171 -56 212 -36 22 -97 26
-146 9 -78 -27 -64 -119 22 -138 42 -10 47 0 21 37 -21 31 -11 52 25 52 51 0
82 -52 64 -107 -17 -50 -89 -69 -141 -37 -15 9 -42 36 -61 60 -19 25 -36 42
-38 40 -10 -9 53 -110 80 -130 21 -16 43 -21 88 -21 32 0 59 -3 59 -7 0 -3
-20 -14 -44 -23 -58 -22 -97 -10 -175 55 -53 44 -60 55 -86 131 -20 61 -29
110 -33 179 -3 63 -1 92 6 85 5 -5 27 -58 47 -118 21 -59 40 -105 43 -103 2 3
-3 26 -12 52 -21 61 -20 82 3 127 19 37 19 38 0 48 -23 12 -24 27 -2 51 21 23
25 23 51 -7z m-3229 -102 c-81 -84 -100 -116 -134 -223 -37 -115 -49 -123 -42
-30 12 147 73 261 161 301 80 36 84 24 15 -48z m-739 -25 c12 -40 23 -79 25
-85 3 -7 12 -13 21 -13 13 0 15 -6 10 -31 -6 -29 -4 -31 19 -27 22 5 25 2 25
-23 0 -23 7 -32 37 -48 l38 -19 -35 -15 c-37 -15 -60 -7 -60 20 0 10 -6 12
-20 8 -17 -5 -20 -2 -20 24 0 26 -4 31 -25 31 -20 0 -25 5 -25 24 0 17 -15 38
-50 67 -54 45 -64 64 -55 102 6 22 53 55 82 56 7 1 22 -32 33 -71z m960 66 c0
-20 -93 -155 -139 -202 -52 -52 -177 -139 -186 -130 -3 2 0 20 5 39 8 28 18
37 55 53 26 10 72 44 104 75 56 55 133 144 139 162 4 10 22 13 22 3z m357 -98
c11 -94 -149 -416 -286 -575 -25 -29 -64 -77 -86 -105 -22 -29 -46 -51 -52
-49 -18 7 6 49 102 178 118 159 140 193 164 258 21 58 21 58 1 52 -25 -8 -25
-8 2 51 21 46 23 47 26 22 4 -31 6 -32 31 -18 26 13 39 54 45 145 4 44 9 90
12 103 l7 23 15 -22 c8 -12 17 -40 19 -63z m-232 -63 c-4 -21 -27 -84 -51
-140 -24 -55 -53 -142 -63 -192 -10 -51 -22 -95 -26 -99 -4 -4 -5 36 -2 88 3
69 12 114 31 164 24 63 105 216 114 216 2 0 1 -17 -3 -37z m-1385 -39 c0 -18
-25 -91 -36 -104 -45 -57 -57 -136 -26 -182 l18 -27 44 40 c25 21 50 39 56 39
16 0 70 -62 93 -108 21 -42 42 -139 36 -168 -16 -80 -10 -74 -74 -74 -55 0
-61 2 -90 35 -17 19 -35 35 -40 35 -15 0 -24 -85 -17 -157 5 -44 3 -70 -5 -79
-9 -11 -8 -14 3 -14 21 0 57 -42 68 -80 8 -27 6 -40 -9 -66 -20 -34 -18 -44 8
-44 22 0 81 -61 81 -84 0 -15 3 -17 12 -8 8 8 8 15 0 25 -9 10 -8 27 4 68 l16
55 71 -23 c78 -25 117 -58 117 -99 0 -13 -4 -24 -9 -24 -6 0 -9 -8 -9 -17 2
-24 -131 -245 -143 -238 -14 9 -11 73 8 132 19 61 13 73 -39 73 -18 0 -28 5
-28 15 0 8 -15 21 -34 29 -25 10 -42 29 -66 74 -17 32 -58 90 -91 127 l-60 67
5 272 c2 149 9 290 15 313 6 24 15 73 21 110 6 44 15 72 26 80 18 13 74 18 74
7z m1141 -110 c-58 -148 -131 -371 -150 -454 -70 -317 -69 -460 4 -667 26 -75
31 -103 17 -103 -9 0 -29 30 -54 82 -58 120 -64 413 -12 666 18 87 95 330 130
409 22 52 73 127 80 120 3 -2 -4 -26 -15 -53z m1107 -49 c-6 -14 -15 -25 -20
-25 -4 0 -8 -5 -8 -11 0 -6 9 -8 23 -4 17 5 18 4 7 -4 -20 -14 -6 -25 17 -13
10 5 38 13 63 17 l45 7 -49 -43 c-75 -67 -106 -85 -117 -68 -5 8 -9 22 -9 32
0 9 -11 35 -25 58 l-26 40 33 13 c78 32 80 32 66 1z m-128 -37 c0 -53 20 -109
47 -134 21 -19 37 -24 79 -24 30 0 54 -2 54 -5 0 -25 -34 -77 -55 -85 -47 -18
-73 -12 -99 23 -30 40 -45 94 -46 177 -2 81 -2 80 10 80 6 0 10 -15 10 -32z
m-1045 -254 c-61 -256 -65 -375 -28 -713 8 -73 -10 -60 -37 27 -45 144 -34
444 25 644 29 102 65 201 71 195 3 -2 -11 -71 -31 -153z m-665 62 c0 -8 -13
-51 -29 -95 l-28 -81 23 -15 c13 -8 30 -15 39 -15 22 0 29 -24 15 -50 -6 -12
-9 -24 -7 -26 3 -3 42 20 87 50 45 31 86 56 91 56 5 0 7 -11 3 -24 -5 -22 -2
-24 46 -31 28 -4 50 -11 48 -15 -2 -4 -47 -47 -100 -95 -90 -80 -112 -91 -89
-47 4 9 11 30 15 45 l7 28 -33 -17 c-47 -25 -92 -23 -96 3 -2 15 -8 19 -22 16
-30 -8 -35 22 -11 63 12 20 20 38 18 41 -8 7 -37 -28 -37 -44 0 -8 -6 -13 -12
-10 -7 2 -13 14 -12 26 0 11 -3 21 -7 21 -5 0 -16 11 -25 24 -14 23 -14 28 5
71 21 48 87 135 102 135 5 0 9 -6 9 -14z m1392 -82 c82 -156 151 -426 152
-599 1 -92 -1 -104 -28 -152 -28 -51 -53 -72 -41 -34 17 56 35 164 35 221 0
114 -75 395 -146 547 -19 40 -34 77 -34 83 0 28 28 -2 62 -66z m-427 -164
c-12 -127 -113 -366 -142 -336 -3 3 25 107 63 231 58 188 70 220 77 197 4 -15
5 -56 2 -92z m-772 -182 c-4 -7 -40 -60 -79 -118 -73 -110 -163 -277 -184
-343 -21 -67 -22 -32 -1 54 32 138 91 243 199 358 53 56 85 80 65 49z m4171
-109 c22 -17 26 -28 26 -71 0 -56 -23 -156 -47 -203 -9 -16 -29 -47 -46 -68
-27 -35 -31 -37 -47 -22 -10 9 -25 43 -34 75 -26 93 -1 199 64 273 37 43 48
45 84 16z m-4189 -79 c0 -56 -2 -61 -42 -102 -24 -24 -43 -49 -43 -55 0 -15
-89 -133 -101 -133 -19 0 -7 31 77 200 93 188 109 201 109 90z m1231 -107
c-29 -56 -49 -158 -50 -250 -1 -51 -4 -89 -7 -85 -4 4 -14 28 -24 54 -13 36
-16 67 -13 125 5 83 19 121 72 188 28 35 31 37 34 18 2 -12 -3 -35 -12 -50z
m218 -361 c27 -61 73 -147 102 -190 38 -54 49 -78 39 -80 -23 -5 -43 11 -80
64 -64 92 -131 249 -141 328 l-6 51 19 -30 c10 -16 41 -81 67 -143z m2501
-2874 c0 -1628 1 -1762 18 -1881 41 -293 113 -568 227 -864 34 -89 36 -84 -50
-128 -428 -218 -1115 -265 -1655 -114 -110 31 -238 80 -327 125 -56 29 -58 40
-23 123 78 187 162 494 209 768 15 83 31 165 37 182 7 20 33 46 72 75 176 125
280 289 306 480 9 64 15 71 74 80 55 9 67 21 67 66 0 29 -10 52 -45 99 -25 34
-45 64 -44 69 0 4 22 24 49 45 l50 37 -20 53 c-23 59 -26 110 -7 124 6 5 33
17 60 27 96 36 140 105 164 263 15 96 20 111 50 144 28 31 63 103 63 130 0 5
-22 20 -50 34 -27 14 -50 29 -50 34 0 5 26 11 58 15 81 9 85 14 68 63 -8 23
-18 63 -22 89 -6 43 -5 47 11 40 10 -4 38 -11 62 -16 41 -10 44 -9 73 22 36
40 37 58 5 96 -25 30 -32 52 -17 52 4 0 15 13 25 29 19 33 22 114 6 176 -6 22
-12 122 -14 223 -3 175 -4 186 -29 234 -31 60 -32 86 -6 169 28 91 51 123 111
155 80 44 94 69 94 167 0 60 -5 94 -19 125 -10 23 -22 42 -26 42 -4 0 -10 9
-13 21 -5 20 -3 21 66 13 145 -15 250 -4 327 35 30 15 57 29 60 30 3 0 5 -788
5 -1751z m-691 1236 c10 -27 6 -98 -7 -115 -23 -30 -116 -46 -394 -69 -90 -7
-117 -5 -177 10 -38 10 -74 16 -78 14 -5 -3 14 -27 42 -53 54 -51 60 -72 35
-121 -29 -56 -85 -66 -135 -24 -94 80 -121 280 -42 326 43 24 92 30 327 38
396 12 422 12 429 -6z m-41 -345 c8 -29 -21 -378 -33 -406 -5 -13 -15 -23 -21
-23 -7 0 -8 6 -3 18 5 9 9 91 9 182 0 113 5 178 14 208 16 47 26 53 34 21z
m-238 -323 c11 -132 -12 -204 -100 -311 -33 -40 -45 -23 -17 23 60 97 67 122
67 233 0 101 10 139 35 139 5 0 11 -38 15 -84z m-295 -1586 c38 -125 26 -327
-18 -318 -15 3 -17 24 -18 206 0 112 2 199 6 195 4 -4 18 -42 30 -83z"/>
<path d="M4058 6654 c-27 -8 -48 -17 -48 -21 0 -3 20 -28 45 -54 25 -27 48
-62 51 -79 4 -16 8 -30 10 -30 2 0 49 20 104 45 85 37 100 41 95 25 -5 -17 -3
-18 30 -8 40 13 46 28 12 28 -15 0 -29 9 -37 25 -11 21 -10 28 4 50 10 15 15
29 12 32 -2 3 -45 -18 -95 -46 -50 -28 -93 -51 -95 -51 -3 0 -8 23 -12 50 -7
55 -8 55 -76 34z"/>
<path d="M4028 5614 c-4 -3 -46 -14 -94 -25 -115 -25 -194 -65 -178 -91 8 -13
66 -9 122 7 28 9 75 34 104 57 70 54 74 58 62 58 -6 0 -13 -3 -16 -6z"/>
</g>
</svg>
